HIERARCHY
ROOT Hips
{
  OFFSET 150.432 88.1888 27.0678
  CHANNELS 6 Xposition Yposition Zposition Zrotation Xrotation Yrotation
  JOINT RightUpLeg
  {
    OFFSET -9.25679 -1.50405 0.000749919
    CHANNELS 3 Zrotation Xrotation Yrotation
    JOINT RightLeg
    {
      OFFSET 0.0460649 -41.9017 0.109432
      CHANNELS 3 Zrotation Xrotation Yrotation
      JOINT RightFoot
      {
        OFFSET 1.7988 -41.6468 0.413135
        CHANNELS 3 Zrotation Xrotation Yrotation
        End Site
        {
          OFFSET 0 -7.69 17.5
        }
      }
    }
  }
  JOINT LeftUpLeg
  {
    OFFSET 9.37007 -1.70178 -0.0772456
    CHANNELS 3 Zrotation Xrotation Yrotation
    JOINT LeftLeg
    {
      OFFSET 0.225295 -41.8622 -0.102498
      CHANNELS 3 Zrotation Xrotation Yrotation
      JOINT LeftFoot
      {
        OFFSET -2.07126 -41.2817 -1.22305
        CHANNELS 3 Zrotation Xrotation Yrotation
        End Site
        {
          OFFSET 0 -7.69 17.5
        }
      }
    }
  }
  JOINT Spine
  {
    OFFSET 0.0614897 14.2979 0.0172263
    CHANNELS 3 Zrotation Xrotation Yrotation
    JOINT Spine1
    {
      OFFSET 0.0253415 9.71429 0.00919728
      CHANNELS 3 Zrotation Xrotation Yrotation
      JOINT Spine2
      {
        OFFSET -0.0163533 10.1275 0.00641818
        CHANNELS 3 Zrotation Xrotation Yrotation
        JOINT Spine3
        {
          OFFSET 0.00964153 9.71178 0.018187
          CHANNELS 3 Zrotation Xrotation Yrotation
          JOINT Neck
          {
            OFFSET -0.0402277 10.3749 0.0917408
            CHANNELS 3 Zrotation Xrotation Yrotation
            JOINT Head
            {
              OFFSET 0.0121048 9.49481 0.108971
              CHANNELS 3 Zrotation Xrotation Yrotation
              End Site
              {
                OFFSET 0 15.95 0
              }
            }
          }
          JOINT RightShoulder
          {
            OFFSET -3.18208 6.946 0.015457
            CHANNELS 3 Zrotation Xrotation Yrotation
            JOINT RightArm
            {
              OFFSET -12.7708 0.0386499 -0.00729584
              CHANNELS 3 Zrotation Xrotation Yrotation
              JOINT RightForeArm
              {
                OFFSET -26.422 0.00272702 0.0331834
                CHANNELS 3 Zrotation Xrotation Yrotation
                JOINT RightHand
                {
                  OFFSET -25.9963 -0.0318335 0.00677283
                  CHANNELS 3 Zrotation Xrotation Yrotation
                  JOINT RightHandThumb1
                  {
                    OFFSET -2.48905 0.190105 3.12053
                    CHANNELS 3 Zrotation Xrotation Yrotation
                    JOINT RightHandThumb2
                    {
                      OFFSET -3.68274 0 0
                      CHANNELS 3 Zrotation Xrotation Yrotation
                      JOINT RightHandThumb3
                      {
                        OFFSET -2.55832 0 0
                        CHANNELS 3 Zrotation Xrotation Yrotation
                        End Site
                        {
                          OFFSET -2.194 0 0
                        }
                      }
                    }
                  }
                  JOINT RightInHandIndex
                  {
                    OFFSET -3.22368 0.508421 1.97842
                    CHANNELS 3 Zrotation Xrotation Yrotation
                    JOINT RightHandIndex1
                    {
                      OFFSET -5.21684 -0.091368 0.999158
                      CHANNELS 3 Zrotation Xrotation Yrotation
                      JOINT RightHandIndex2
                      {
                        OFFSET -3.61937 0 0
                        CHANNELS 3 Zrotation Xrotation Yrotation
                        JOINT RightHandIndex3
                        {
                          OFFSET -2.0521 0 0
                          CHANNELS 3 Zrotation Xrotation Yrotation
                          End Site
                          {
                            OFFSET -1.805 0 0
                          }
                        }
                      }
                    }
                  }
                  JOINT RightInHandMiddle
                  {
                    OFFSET -3.38211 0.517263 0.756737
                    CHANNELS 3 Zrotation Xrotation Yrotation
                    JOINT RightHandMiddle1
                    {
                      OFFSET -5.17411 -0.084 0.313895
                      CHANNELS 3 Zrotation Xrotation Yrotation
                      JOINT RightHandMiddle2
                      {
                        OFFSET -3.94947 0 0
                        CHANNELS 3 Zrotation Xrotation Yrotation
                        JOINT RightHandMiddle3
                        {
                          OFFSET -2.47579 0 0
                          CHANNELS 3 Zrotation Xrotation Yrotation
                          End Site
                          {
                            OFFSET -1.975 0 0
                          }
                        }
                      }
                    }
                  }
                  JOINT RightInHandRing
                  {
                    OFFSET -3.36516 0.537895 -0.128947
                    CHANNELS 3 Zrotation Xrotation Yrotation
                    JOINT RightHandRing1
                    {
                      OFFSET -4.63474 -0.022105 -0.478947
                      CHANNELS 3 Zrotation Xrotation Yrotation
                      JOINT RightHandRing2
                      {
                        OFFSET -3.44238 0 0
                        CHANNELS 3 Zrotation Xrotation Yrotation
                        JOINT RightHandRing3
                        {
                          OFFSET -2.3881 0 0
                          CHANNELS 3 Zrotation Xrotation Yrotation
                          End Site
                          {
                            OFFSET -1.857 0 0
                          }
                        }
                      }
                    }
                  }
                  JOINT RightInHandPinky
                  {
                    OFFSET -3.16105 0.469368 -1.20179
                    CHANNELS 3 Zrotation Xrotation Yrotation
                    JOINT RightHandPinky1
                    {
                      OFFSET -4.14105 -0.022105 -1.09053
                      CHANNELS 3 Zrotation Xrotation Yrotation
                      JOINT RightHandPinky2
                      {
                        OFFSET -2.75653 0 0
                        CHANNELS 3 Zrotation Xrotation Yrotation
                        JOINT RightHandPinky3
                        {
                          OFFSET -1.74189 0 0
                          CHANNELS 3 Zrotation Xrotation Yrotation
                          End Site
                          {
                            OFFSET -1.645 0 0
                          }
                        }
                      }
                    }
                  }
                }
              }
            }
          }
          JOINT LeftShoulder
          {
            OFFSET 3.18966 6.92856 0.062398
            CHANNELS 3 Zrotation Xrotation Yrotation
            JOINT LeftArm
            {
              OFFSET 12.7601 -0.0509086 0.00275124
              CHANNELS 3 Zrotation Xrotation Yrotation
              JOINT LeftForeArm
              {
                OFFSET 26.4828 -0.0571091 -0.0285564
                CHANNELS 3 Zrotation Xrotation Yrotation
                JOINT LeftHand
                {
                  OFFSET 25.9994 -0.0171136 -0.0547064
                  CHANNELS 3 Zrotation Xrotation Yrotation
                  JOINT LeftHandThumb1
                  {
                    OFFSET 2.48905 0.190105 3.12053
                    CHANNELS 3 Zrotation Xrotation Yrotation
                    JOINT LeftHandThumb2
                    {
                      OFFSET 3.68274 0 0
                      CHANNELS 3 Zrotation Xrotation Yrotation
                      JOINT LeftHandThumb3
                      {
                        OFFSET 2.55832 0 0
                        CHANNELS 3 Zrotation Xrotation Yrotation
                        End Site
                        {
                          OFFSET 2.194 0 0
                        }
                      }
                    }
                  }
                  JOINT LeftInHandIndex
                  {
                    OFFSET 3.22368 0.508421 1.97842
                    CHANNELS 3 Zrotation Xrotation Yrotation
                    JOINT LeftHandIndex1
                    {
                      OFFSET 5.21684 -0.091368 0.999158
                      CHANNELS 3 Zrotation Xrotation Yrotation
                      JOINT LeftHandIndex2
                      {
                        OFFSET 3.61937 0 0
                        CHANNELS 3 Zrotation Xrotation Yrotation
                        JOINT LeftHandIndex3
                        {
                          OFFSET 2.0521 0 0
                          CHANNELS 3 Zrotation Xrotation Yrotation
                          End Site
                          {
                            OFFSET 1.805 0 0
                          }
                        }
                      }
                    }
                  }
                  JOINT LeftInHandMiddle
                  {
                    OFFSET 3.38211 0.517263 0.756737
                    CHANNELS 3 Zrotation Xrotation Yrotation
                    JOINT LeftHandMiddle1
                    {
                      OFFSET 5.17411 -0.084 0.313895
                      CHANNELS 3 Zrotation Xrotation Yrotation
                      JOINT LeftHandMiddle2
                      {
                        OFFSET 3.94947 0 0
                        CHANNELS 3 Zrotation Xrotation Yrotation
                        JOINT LeftHandMiddle3
                        {
                          OFFSET 2.47579 0 0
                          CHANNELS 3 Zrotation Xrotation Yrotation
                          End Site
                          {
                            OFFSET 1.975 0 0
                          }
                        }
                      }
                    }
                  }
                  JOINT LeftInHandRing
                  {
                    OFFSET 3.36516 0.537895 -0.128947
                    CHANNELS 3 Zrotation Xrotation Yrotation
                    JOINT LeftHandRing1
                    {
                      OFFSET 4.63474 -0.022105 -0.478947
                      CHANNELS 3 Zrotation Xrotation Yrotation
                      JOINT LeftHandRing2
                      {
                        OFFSET 3.44238 0 0
                        CHANNELS 3 Zrotation Xrotation Yrotation
                        JOINT LeftHandRing3
                        {
                          OFFSET 2.3881 0 0
                          CHANNELS 3 Zrotation Xrotation Yrotation
                          End Site
                          {
                            OFFSET 1.857 0 0
                          }
                        }
                      }
                    }
                  }
                  JOINT LeftInHandPinky
                  {
                    OFFSET 3.16105 0.469368 -1.20179
                    CHANNELS 3 Zrotation Xrotation Yrotation
                    JOINT LeftHandPinky1
                    {
                      OFFSET 4.14105 -0.022105 -1.09053
                      CHANNELS 3 Zrotation Xrotation Yrotation
                      JOINT LeftHandPinky2
                      {
                        OFFSET 2.75653 0 0
                        CHANNELS 3 Zrotation Xrotation Yrotation
                        JOINT LeftHandPinky3
                        {
                          OFFSET 1.74189 0 0
                          CHANNELS 3 Zrotation Xrotation Yrotation
                          End Site
                          {
                            OFFSET 1.645 0 0
                          }
                        }
                      }
                    }
                  }
                }
              }
            }
          }
        }
      }
    }
  }
}
MOTION
Frames: 3
Frame Time: 0.00833333
2.404050000000000182e+03 8.788960000000000150e+01 2.960739999999999839e+01 2.328220000000000312e+01 -2.537720000000000198e+01 -1.441899999999999693e+02 9.685729999999999507e+00 -6.604630000000000223e+01 2.273829999999999529e+01 -4.649700000000001054e-01 2.776370000000000005e+01 1.697800000000000153e+01 9.278940000000002186e+00 1.901170000000000027e+00 -5.601419999999999177e+00 3.845689999999999742e+01 -4.778960000000000719e+01 5.054240000000000066e+01 1.167119999999999935e+00 3.125639999999999930e+01 1.269920000000000115e+01 -1.087740000000000151e+01 -1.580640000000000267e+00 5.031550000000000189e-01 -1.217509999999999870e+01 1.107959999999999745e+01 1.329609999999999914e+01 -2.797349999999999781e+00 3.586320000000000174e+00 2.912069999999999936e+00 -4.646339999999999471e+00 6.179629999999999512e+00 4.604139999999999233e+00 -1.082010000000000194e-01 4.970979999999999843e-02 -2.857950000000000212e-01 -1.082249999999999879e-01 5.009569999999999301e-02 -2.853180000000001826e-01 -1.912269999999999914e+00 9.284569999999998657e-01 -5.164339999999999264e+00 4.945649999999998769e+00 -1.586610000000000298e+00 3.076999999999999957e+00 5.856069999999999709e+01 1.192160000000000153e+01 7.608700000000000330e+01 8.755740000000002965e+00 -4.764119999999999777e+01 2.131249999999994316e+00 2.879059999999999064e+00 -2.091880000000000095e+01 3.794799999999999507e+00 2.818400000000000105e+01 1.072940000000000005e+01 1.915919999999999845e+01 3.846630000000001528e-15 6.361109999999998952e-15 -1.000000000000000000e+01 8.750480000000002514e-16 9.541660000000000512e-15 -1.000000000000000000e+01 6.075359999999998598e-15 -3.180549999999999587e-15 3.478729999999997266e-16 1.998179999999999978e+01 8.718970000000000331e-01 2.396399999999999864e+00 2.400000000000000000e+01 -3.180549999999999982e-15 3.180550000000000771e-15 2.000000000000000000e+01 -1.590279999999999485e-15 -3.180550000000000771e-15 6.075359999999998598e-15 -3.180549999999999587e-15 3.478729999999997266e-16 2.000000000000000000e+01 3.180550000000000771e-15 -7.951389999999999226e-16 2.400000000000000000e+01 0.000000000000000000e+00 4.770830000000001834e-15 2.000000000000000000e+01 1.590279999999999485e-15 0.000000000000000000e+00 6.075359999999998598e-15 -3.180549999999999587e-15 3.478729999999997266e-16 1.997479999999999833e+01 -1.025649999999999951e+00 -2.819380000000000219e+00 2.400000000000000000e+01 3.180549999999999193e-15 0.000000000000000000e+00 2.000000000000000000e+01 -3.180549999999999982e-15 0.000000000000000000e+00 6.075359999999998598e-15 -3.180549999999999587e-15 3.478729999999997266e-16 1.978150000000000119e+01 -3.009479999999999933e+00 -8.305149999999999366e+00 2.400000000000000000e+01 -1.590280000000000668e-15 0.000000000000000000e+00 2.000000000000000000e+01 1.192710000000000008e-15 6.361109999999998952e-15 -4.826749999999999652e+00 -9.126450000000000173e+00 -2.537360000000000326e+01 -2.618009999999999593e+01 3.585949999999998994e+01 -7.544519999999999982e+01 1.208509999999999991e+02 -7.738909999999999911e+01 1.076539999999999964e+02 2.971280000000007249e-01 3.778540000000000276e+01 2.112290000000000845e+01 -2.818400000000000105e+01 1.072940000000000005e+01 -1.915919999999999845e+01 5.405250000000000022e-15 -3.180549999999998404e-15 1.000000000000000000e+01 1.291850000000000038e-14 0.000000000000000000e+00 1.000000000000000000e+01 3.031469999999999934e-15 -9.541660000000000512e-15 -8.945309999999997833e-16 -1.998179999999999978e+01 8.718970000000000331e-01 -2.396399999999999864e+00 -2.400000000000000000e+01 -6.361109999999999741e-15 3.180549999999999982e-15 -2.000000000000000000e+01 -4.770829999999999467e-15 3.180549999999999982e-15 3.031469999999999934e-15 -9.541660000000000512e-15 -8.945309999999997833e-16 -2.000000000000000000e+01 3.180549999999999193e-15 6.361110000000000530e-15 -2.400000000000000000e+01 3.180550000000000771e-15 3.180549999999999193e-15 -2.000000000000000000e+01 -3.180550000000000771e-15 3.180549999999999982e-15 3.031469999999999934e-15 -9.541660000000000512e-15 -8.945309999999997833e-16 -1.997479999999999833e+01 -1.025649999999999951e+00 2.819380000000000219e+00 -2.400000000000000000e+01 3.180550000000000771e-15 6.361109999999999741e-15 -2.000000000000000000e+01 -6.361109999999998952e-15 1.272220000000000151e-14 3.031469999999999934e-15 -9.541660000000000512e-15 -8.945309999999997833e-16 -1.978150000000000119e+01 -3.009479999999999933e+00 8.305149999999999366e+00 -2.400000000000000000e+01 -3.180549999999999982e-15 0.000000000000000000e+00 -2.000000000000000000e+01 0.000000000000000000e+00 0.000000000000000000e+00
2.404007000000000062e+03 8.788519999999999754e+01 2.965009999999999835e+01 2.322080000000000410e+01 -2.541310000000000002e+01 -1.443830000000000098e+02 9.879090000000001481e+00 -6.603149999999999409e+01 2.292449999999999832e+01 -5.080759999999995280e-01 2.772360000000000113e+01 1.709430000000000049e+01 9.312229999999997787e+00 1.931179999999999675e+00 -5.575089999999999435e+00 3.849549999999999983e+01 -4.772109999999999985e+01 5.058030000000000115e+01 1.119240000000000013e+00 3.133999999999999631e+01 1.278630000000000067e+01 -1.087620000000000253e+01 -1.668320000000000469e+00 5.508819999999998718e-01 -1.209830000000000183e+01 1.107470000000000176e+01 1.309789999999999921e+01 -2.781540000000000568e+00 3.566650000000000098e+00 2.862379999999999036e+00 -4.619489999999999874e+00 6.139739999999999753e+00 4.525050000000000239e+00 -1.207009999999999750e-01 4.930240000000001011e-02 -2.656060000000000088e-01 -1.207310000000000189e-01 4.969369999999999343e-02 -2.651249999999998330e-01 -2.140200000000000102e+00 9.305250000000002686e-01 -4.798320000000000363e+00 4.965230000000000032e+00 -1.541239999999999721e+00 2.919709999999999361e+00 5.917869999999999919e+01 1.230490000000000173e+01 7.547929999999999495e+01 9.275270000000002568e+00 -5.074949999999999761e+01 4.626030000000000086e+00 2.405969999999999942e+00 -1.852959999999999852e+01 2.634360000000000479e+00 2.818400000000000105e+01 1.072940000000000005e+01 1.915919999999999845e+01 6.365119999999978284e-16 3.180550000000000771e-15 -1.000000000000000000e+01 -6.391600000000002333e-15 9.541660000000000512e-15 -1.000000000000000000e+01 -1.490889999999996109e-16 3.180549999999999587e-15 0.000000000000000000e+00 1.998179999999999978e+01 8.718970000000000331e-01 2.396399999999999864e+00 2.400000000000000000e+01 -6.361110000000002108e-15 -3.180550000000000771e-15 2.000000000000000000e+01 4.770830000000000256e-15 0.000000000000000000e+00 -1.490889999999996109e-16 3.180549999999999587e-15 0.000000000000000000e+00 2.000000000000000000e+01 3.180549999999999982e-15 0.000000000000000000e+00 2.400000000000000000e+01 -1.590280000000000668e-15 -1.590279999999999485e-15 2.000000000000000000e+01 0.000000000000000000e+00 0.000000000000000000e+00 -1.490889999999996109e-16 3.180549999999999587e-15 0.000000000000000000e+00 1.997479999999999833e+01 -1.025649999999999951e+00 -2.819380000000000219e+00 2.400000000000000000e+01 1.590279999999999880e-15 4.770830000000001045e-15 2.000000000000000000e+01 1.590279999999999880e-15 -6.361109999999998952e-15 -1.490889999999996109e-16 3.180549999999999587e-15 0.000000000000000000e+00 1.978150000000000119e+01 -3.009479999999999933e+00 -8.305149999999999366e+00 2.400000000000000000e+01 0.000000000000000000e+00 -3.180550000000000771e-15 2.000000000000000000e+01 2.584200000000000458e-15 0.000000000000000000e+00 -4.837850000000001316e+00 -9.094380000000001019e+00 -2.545829999999999771e+01 -2.586249999999999716e+01 3.605429999999999779e+01 -7.573420000000001551e+01 1.160649999999999977e+02 -7.733979999999999677e+01 1.026000000000000085e+02 -2.881479999999996267e-01 3.782729999999999393e+01 2.147800000000000153e+01 -2.818400000000000105e+01 1.072940000000000005e+01 -1.915919999999999845e+01 8.567220000000000400e-15 6.361110000000000530e-15 1.000000000000000000e+01 3.229619999999999811e-15 0.000000000000000000e+00 1.000000000000000000e+01 1.292099999999999835e-15 -3.180550000000000771e-15 -3.130859999999999760e-15 -1.998179999999999978e+01 8.718970000000000331e-01 -2.396399999999999864e+00 -2.400000000000000000e+01 1.272219999999999993e-14 0.000000000000000000e+00 -2.000000000000000000e+01 -1.590279999999999880e-15 6.361109999999998952e-15 1.292099999999999835e-15 -3.180550000000000771e-15 -3.130859999999999760e-15 -2.000000000000000000e+01 -9.541660000000000512e-15 -1.590279999999999485e-15 -2.400000000000000000e+01 0.000000000000000000e+00 -3.180549999999999193e-15 -2.000000000000000000e+01 4.770830000000000256e-15 3.180549999999999982e-15 1.292099999999999835e-15 -3.180550000000000771e-15 -3.130859999999999760e-15 -1.997479999999999833e+01 -1.025649999999999951e+00 2.819380000000000219e+00 -2.400000000000000000e+01 0.000000000000000000e+00 1.908330000000000462e-14 -2.000000000000000000e+01 -3.180549999999999982e-15 0.000000000000000000e+00 1.292099999999999835e-15 -3.180550000000000771e-15 -3.130859999999999760e-15 -1.978150000000000119e+01 -3.009479999999999933e+00 8.305149999999999366e+00 -2.400000000000000000e+01 -3.180549999999999982e-15 -3.180549999999999982e-15 -2.000000000000000000e+01 6.361110000000000530e-15 1.908330000000000462e-14
2.403962999999999738e+03 8.788060000000000116e+01 2.969969999999999644e+01 2.315909999999999513e+01 -2.545149999999999935e+01 -1.445759999999999934e+02 1.006359999999999921e+01 -6.602339999999999520e+01 2.309959999999999880e+01 -5.503969999999998031e-01 2.767670000000000030e+01 1.720299999999999940e+01 9.352130000000002497e+00 1.972860000000000280e+00 -5.536670000000000869e+00 3.853149999999999409e+01 -4.766740000000000776e+01 5.061760000000000304e+01 1.077779999999999738e+00 3.143240000000000123e+01 1.287590000000000146e+01 -1.087429999999999986e+01 -1.757660000000000000e+00 6.036219999999998809e-01 -1.202050000000000018e+01 1.106959999999999944e+01 1.288579999999999970e+01 -2.765719999999999956e+00 3.546149999999999913e+00 2.809060000000000112e+00 -4.592509999999999870e+00 6.098130000000000273e+00 4.439939999999999998e+00 -1.330610000000000404e-01 4.888750000000000040e-02 -2.444840000000000346e-01 -1.330939999999999901e-01 4.928260000000000973e-02 -2.439940000000002662e-01 -2.365559999999999885e+00 9.323000000000001286e-01 -4.415499999999999758e+00 4.982850000000000890e+00 -1.494299999999999962e+00 2.756380000000000052e+00 5.978359999999999275e+01 1.270960000000000178e+01 7.484520000000000550e+01 9.941720000000000113e+00 -5.217549999999999955e+01 6.640050000000002228e+00 2.138819999999999055e+00 -1.780080000000000240e+01 2.277199999999999669e+00 2.818400000000000105e+01 1.072940000000000005e+01 1.915919999999999845e+01 1.065450000000000776e-15 3.180550000000000771e-15 -1.000000000000000000e+01 2.354570000000001497e-15 -9.541660000000000512e-15 -1.000000000000000000e+01 -1.093320000000000182e-15 3.180549999999999587e-15 -5.963539999999999870e-16 1.998179999999999978e+01 8.718970000000000331e-01 2.396399999999999864e+00 2.400000000000000000e+01 6.361109999999999741e-15 6.361109999999999741e-15 2.000000000000000000e+01 -3.180549999999999982e-15 -3.180549999999999982e-15 -1.093320000000000182e-15 3.180549999999999587e-15 -5.963539999999999870e-16 2.000000000000000000e+01 0.000000000000000000e+00 -3.975689999999998936e-15 2.400000000000000000e+01 -1.590280000000000274e-15 -1.590279999999999485e-15 2.000000000000000000e+01 -1.590280000000001063e-15 1.590279999999999485e-15 -1.093320000000000182e-15 3.180549999999999587e-15 -5.963539999999999870e-16 1.997479999999999833e+01 -1.025649999999999951e+00 -2.819380000000000219e+00 2.400000000000000000e+01 4.770830000000001834e-15 0.000000000000000000e+00 2.000000000000000000e+01 -7.951390000000003171e-16 3.180549999999999982e-15 -1.093320000000000182e-15 3.180549999999999587e-15 -5.963539999999999870e-16 1.978150000000000119e+01 -3.009479999999999933e+00 -8.305149999999999366e+00 2.400000000000000000e+01 -1.590280000000000274e-15 -3.180550000000000771e-15 2.000000000000000000e+01 0.000000000000000000e+00 6.361110000000001319e-15 -4.846620000000000594e+00 -9.059879999999999711e+00 -2.555350000000000321e+01 -2.552000000000000313e+01 3.625349999999999540e+01 -7.609340000000000259e+01 1.105210000000000008e+02 -7.716800000000000637e+01 9.676249999999998863e+01 -9.659240000000011150e-01 3.773460000000000036e+01 2.190119999999999578e+01 -2.818400000000000105e+01 1.072940000000000005e+01 -1.915919999999999845e+01 1.140510000000000225e-14 -1.431249999999999897e-14 1.000000000000000000e+01 -2.465869999999996818e-16 -3.180549999999999587e-15 1.000000000000000000e+01 -9.939230000000020105e-17 -3.180549999999997615e-15 6.957460000000002420e-16 -1.998179999999999978e+01 8.718970000000000331e-01 -2.396399999999999864e+00 -2.400000000000000000e+01 3.180549999999999587e-15 0.000000000000000000e+00 -2.000000000000000000e+01 -1.590279999999999880e-15 1.272220000000000151e-14 -9.939230000000020105e-17 -3.180549999999997615e-15 6.957460000000002420e-16 -2.000000000000000000e+01 -9.541659999999997356e-15 3.180550000000000771e-15 -2.400000000000000000e+01 -3.180550000000000376e-15 -3.180550000000001560e-15 -2.000000000000000000e+01 -3.180549999999999193e-15 1.590279999999999801e-14 -9.939230000000020105e-17 -3.180549999999997615e-15 6.957460000000002420e-16 -1.997479999999999833e+01 -1.025649999999999951e+00 2.819380000000000219e+00 -2.400000000000000000e+01 -3.180549999999999587e-15 -6.361109999999998163e-15 -2.000000000000000000e+01 3.180549999999999587e-15 6.361109999999999741e-15 -9.939230000000020105e-17 -3.180549999999997615e-15 6.957460000000002420e-16 -1.978150000000000119e+01 -3.009479999999999933e+00 8.305149999999999366e+00 -2.400000000000000000e+01 -6.361109999999998952e-15 -1.590280000000000274e-15 -2.000000000000000000e+01 -3.180549999999999982e-15 6.361109999999999741e-15
